HIERARCHY
ROOT Hips
{
	OFFSET -3.958830 18.904000 13.208200
	CHANNELS 6 Xposition Yposition Zposition Zrotation Yrotation Xrotation 
	JOINT LHipJoint
	{
		OFFSET 0.000000 0.000000 0.000000
		CHANNELS 3 Zrotation Yrotation Xrotation
		JOINT LeftUpLeg
		{
			OFFSET 1.800000 -1.400000 0.085000
			CHANNELS 3 Zrotation Yrotation Xrotation
			JOINT LeftLeg
			{
				OFFSET 2.215000 -6.000000 0.000000
				CHANNELS 3 Zrotation Yrotation Xrotation
				JOINT LeftFoot
				{
					OFFSET 2.500000 -6.900000 0.000000
					CHANNELS 3 Zrotation Yrotation Xrotation
					JOINT LeftToeBase
					{
						OFFSET 0.200000 -0.500000 1.950000
						CHANNELS 3 Zrotation Yrotation Xrotation
						End Site
						{
							OFFSET 0.000000 0.000000 0.000000
						}
					}
				}
			}
		}
	}
	JOINT RHipJoint
	{
		OFFSET 0.000000 0.000000 0.000000
		CHANNELS 3 Zrotation Yrotation Xrotation
		JOINT RightUpLeg
		{
			OFFSET -1.800000 -1.400000 0.085000
			CHANNELS 3 Zrotation Yrotation Xrotation
			JOINT RightLeg
			{
				OFFSET -2.215000 -6.000000 0.000000
				CHANNELS 3 Zrotation Yrotation Xrotation
				JOINT RightFoot
				{
					OFFSET -2.500000 -6.900000 0.000000
					CHANNELS 3 Zrotation Yrotation Xrotation
					JOINT RightToeBase
					{
						OFFSET -0.200000 -0.500000 1.950000
						CHANNELS 3 Zrotation Yrotation Xrotation
						End Site
						{
							OFFSET 0.000000 0.000000 0.000000
						}
					}
				}
			}
		}
	}
	JOINT LowerBack
	{
		OFFSET 0.000000 0.000000 0.000000
		CHANNELS 3 Zrotation Yrotation Xrotation
		JOINT Spine
		{
			OFFSET -0.087000 1.940000 -0.288900
			CHANNELS 3 Zrotation Yrotation Xrotation
			JOINT Spine1
			{
				OFFSET 0.000000 1.950000 0.060000
				CHANNELS 3 Zrotation Yrotation Xrotation
				JOINT Neck
				{
					OFFSET 0.000000 0.000000 0.000000
					CHANNELS 3 Zrotation Yrotation Xrotation
					JOINT Neck1
					{
						OFFSET 0.000000 1.600000 0.340000
						CHANNELS 3 Zrotation Yrotation Xrotation
						JOINT Head
						{
							OFFSET 0.000000 1.667000 -0.240000
							CHANNELS 3 Zrotation Yrotation Xrotation
							End Site
							{
								OFFSET 0.000000 0.000000 0.000000
							}
						}
					}
				}
				JOINT LeftShoulder
				{
					OFFSET 0.000000 0.000000 0.000000
					CHANNELS 3 Zrotation Yrotation Xrotation
					JOINT LeftArm
					{
						OFFSET 2.700000 1.550000 -0.730000
						CHANNELS 3 Zrotation Yrotation Xrotation
						JOINT LeftForeArm
						{
							OFFSET 5.450000 0.000000 0.000000
							CHANNELS 3 Zrotation Yrotation Xrotation
							JOINT LeftHand
							{
								OFFSET 3.450000 0.000000 0.000000
								CHANNELS 3 Zrotation Yrotation Xrotation
								JOINT LeftHandIndex1
								{
									OFFSET 0.750000 0.000000 0.000000
									CHANNELS 3 Zrotation Yrotation Xrotation
									End Site
									{
										OFFSET 0.000000 0.000000 0.000000
									}
								}
							}
						}
					}
				}
				JOINT RightShoulder
				{
					OFFSET 0.000000 0.000000 0.000000
					CHANNELS 3 Zrotation Yrotation Xrotation
					JOINT RightArm
					{
						OFFSET -2.700000 1.550000 -0.730000
						CHANNELS 3 Zrotation Yrotation Xrotation
						JOINT RightForeArm
						{
							OFFSET -5.450000 0.000000 0.000000
							CHANNELS 3 Zrotation Yrotation Xrotation
							JOINT RightHand
							{
								OFFSET -3.450000 0.000000 0.000000
								CHANNELS 3 Zrotation Yrotation Xrotation
								JOINT RightHandIndex1
								{
									OFFSET -0.750000 0.000000 0.000000
									CHANNELS 3 Zrotation Yrotation Xrotation
									End Site
									{
										OFFSET 0.000000 0.000000 0.000000
									}
								}
							}
						}
					}
				}
			}
		}
	}
}
MOTION
Frames: 7
Frame Time: 0.016667
-2.010230 17.260150 -7.714160 -11.843404 36.914835 -2.918473 -15.162821 13.186769 1.012307 10.978313 2.241827 -11.251853 8.581619 6.941366 39.209399 -0.182718 6.766005 2.188157 0.755630 0.442280 0.585830 18.585849 -8.517949 6.499653 -21.775928 15.313434 -58.144321 13.790766 -2.661265 12.397276 -0.263546 -1.517863 3.706997 0.206960 0.045050 0.165820 -4.893492 -1.753744 -8.738215 24.011872 -8.237330 33.549629 -2.222848 -5.862787 10.125409 -2.149613 -0.375039 -10.117575 -6.784196 -7.050523 46.039356 12.813590 -9.177380 -35.132000 9.753708 -47.000970 -3.870542 -8.646516 -52.423168 3.547487 56.970875 -60.620805 -31.710040 -3.726907 2.355956 0.901840 -0.291220 0.317820 0.305850 -5.197561 45.250683 7.923423 26.449438 47.763412 -6.142073 -47.280458 58.920204 -27.692628 1.606716 -0.216323 -0.161770 0.441610 -0.213310 -0.150530 
-2.059750 17.172340 -7.723580 -11.109473 38.018320 -5.609915 -15.259984 13.448128 1.025429 11.828723 2.862521 -9.683539 8.923275 7.399133 41.053866 -0.059012 7.103745 1.999299 0.885110 0.629750 0.644100 18.461515 -8.408143 6.506776 -24.176739 15.766580 -56.842888 18.725966 -4.912249 19.265857 -0.525236 -2.708413 3.246944 0.270540 -0.038610 0.200570 -4.658046 -2.326242 -8.803281 21.500510 -8.065871 35.938313 -2.095546 -6.054001 10.351962 -1.540564 0.330392 -10.223588 -6.426628 -6.796755 50.283019 15.894750 -8.421680 -38.985060 5.432671 -47.408310 -2.904918 -18.377637 -54.248806 9.041118 46.996963 -61.656525 -26.500182 -3.488497 2.207358 0.931010 -0.362820 0.422550 0.308070 -1.926826 45.243674 7.425692 28.250118 48.137273 -6.366822 -22.111689 58.873549 -13.212478 1.591417 -0.645544 -0.058650 0.422460 -0.254210 -0.125450 
-2.096360 17.071860 -7.716990 -11.214905 38.576609 -7.572843 -15.317701 13.471843 1.012232 12.466367 2.920569 -10.289051 10.363505 7.481984 45.347646 -0.006742 7.841118 1.695780 0.991650 0.756750 0.697930 18.435244 -8.176879 6.628540 -26.566051 16.368618 -56.578046 25.992384 -7.992581 24.685178 -0.878502 -4.323591 2.660758 0.375130 -0.049790 0.203510 -4.540389 -2.680186 -8.981073 19.589838 -8.284192 36.547848 -2.605939 -6.199065 11.097289 -0.810693 0.798232 -11.101285 -5.557170 -5.745747 53.485724 16.818740 -7.122960 -40.249980 2.053684 -46.687548 -0.961891 -25.666092 -55.419376 10.290950 32.225274 -62.734758 -18.632685 -3.157921 2.062335 1.007020 -0.391680 0.478060 0.327110 0.085177 44.028549 6.834851 29.458772 48.669772 -4.875688 -7.341280 52.810587 -4.510853 1.609405 -0.906854 -0.074400 0.494490 -0.262710 -0.140570 
-2.105730 16.971120 -7.688310 -11.011040 37.216543 -9.171890 -15.427256 13.675288 1.212728 12.838460 2.028770 -9.453252 10.216094 7.807844 48.803673 0.176413 8.416303 1.482285 1.038920 0.801760 0.753810 18.299073 -7.844486 6.766939 -25.101463 16.683567 -56.917692 30.143635 -12.003522 31.696581 -1.276303 -5.931900 2.152867 0.362860 -0.135550 0.192310 -4.010882 -3.614929 -9.332051 15.664635 -7.346120 38.720907 -0.755363 -4.879780 11.152113 0.155550 -0.023137 -15.209059 -7.419499 -3.947551 60.032034 17.482290 -6.598010 -40.942360 -2.240502 -45.144846 3.890050 -30.525385 -57.373449 7.357801 19.299732 -55.346683 -10.700024 -2.839414 2.174564 1.079320 -0.470770 0.558460 0.323720 2.486453 44.286127 7.338392 29.119938 47.796142 -5.279464 -2.636288 47.991556 -1.750207 1.673561 -0.972313 -0.042440 0.482530 -0.303570 -0.155190 
-2.121470 16.905060 -7.639800 -10.770032 35.724309 -10.898286 -15.530275 13.859501 1.260235 13.380426 1.841223 -7.794814 10.526986 8.026500 50.781124 0.275098 8.806236 1.334457 1.044680 0.794800 0.778620 18.189245 -7.499299 6.972675 -25.222381 17.957594 -57.235921 35.251891 -16.531358 37.909365 -1.746490 -7.710847 1.613201 0.347280 -0.184460 0.184260 -3.528705 -4.426710 -9.596431 12.232391 -5.997498 41.063413 1.488081 -4.011915 11.727430 -0.080044 -0.421481 -19.382284 -8.555119 -2.394456 64.308274 18.190090 -5.913610 -40.118180 -4.783024 -45.982282 5.922154 -29.566850 -56.612131 3.860363 13.382249 -52.251388 -7.310651 -2.710376 2.287003 1.146170 -0.515450 0.600960 0.298830 5.542899 46.136081 9.866713 29.122145 48.731268 -4.486100 -2.878041 38.633629 -1.006842 1.766795 -0.919422 -0.044550 0.475050 -0.297830 -0.182930 
-2.155000 16.897210 -7.575780 -9.921675 34.941544 -12.441368 -15.612296 13.850896 1.572634 14.382989 -1.218249 -3.909548 6.152115 9.206356 50.259009 0.339409 8.954621 1.269293 1.124690 0.853930 0.882550 18.064862 -7.413461 6.719597 -19.333462 16.108961 -56.695497 31.851143 -21.361065 48.595900 -2.221041 -9.595469 1.046070 0.354210 -0.302490 0.188790 -3.067821 -4.993742 -9.624062 7.869220 -4.562071 42.949064 4.364654 -3.670489 12.402958 -0.828476 -0.574895 -22.367316 -9.649929 -1.180168 68.173692 19.490380 -4.992790 -39.913750 -6.900538 -46.623952 6.708938 -25.681360 -53.112937 0.221060 5.844574 -47.614780 -3.037076 -2.496235 2.572766 1.212940 -0.598210 0.683530 0.282150 9.385319 46.721832 12.500389 32.023888 46.482497 -6.775620 -0.023029 37.796577 -0.733774 1.760629 -1.026408 -0.002160 0.414820 -0.360280 -0.218970 
-2.150260 16.868840 -7.498290 -9.813580 35.281478 -13.373402 -15.653982 13.798327 1.488611 15.076275 -1.618879 -1.251243 5.308047 9.312485 48.593275 0.335551 8.850371 1.298888 1.075330 0.764550 0.898040 18.057872 -7.262864 6.744567 -19.135109 15.744397 -57.097574 33.872725 -26.419252 54.586167 -2.658452 -11.325349 0.579724 0.288530 -0.342220 0.222580 -2.927622 -5.194509 -9.579649 6.613994 -4.156469 42.850085 5.221939 -3.805380 10.813242 -0.958476 -0.003651 -22.047584 -8.259303 -1.507220 68.991171 18.215500 -4.500900 -37.933510 -8.602273 -46.126279 7.072201 -24.506854 -48.154544 -1.950445 -10.972326 -54.211651 4.310961 -2.271349 3.051327 1.225010 -0.589320 0.681570 0.224410 11.402688 45.173935 12.487890 35.419478 40.392826 -8.748823 9.058755 43.268007 1.243504 1.738297 -1.156045 0.008420 0.332070 -0.332460 -0.259030 
